HIERARCHY
ROOT Hips
{
    OFFSET 0.000000 0.000000 0.000000
    CHANNELS 6 Xposition Yposition Zposition Zrotation Xrotation Yrotation
    JOINT Spine
    {
        OFFSET -0.000000 0.083210 0.000000
        CHANNELS 3 Zrotation Xrotation Yrotation
        JOINT Spine1
        {
            OFFSET -0.000000 0.256334 0.000000
            CHANNELS 3 Zrotation Xrotation Yrotation
            JOINT Neck
            {
                OFFSET -0.000000 0.275576 0.002912
                CHANNELS 3 Zrotation Xrotation Yrotation
                JOINT Head
                {
                    OFFSET -0.000000 0.157287 0.020295
                    CHANNELS 3 Zrotation Xrotation Yrotation
                    End Site
                    {
                        OFFSET -0.000000 0.202951 0.000000
                    }
                }
            }
            JOINT LeftShoulder
            {
                OFFSET 0.041044 0.235234 -0.000041
                CHANNELS 3 Zrotation Xrotation Yrotation
                JOINT LeftArm
                {
                    OFFSET 0.117964 0.000000 0.000000
                    CHANNELS 3 Zrotation Xrotation Yrotation
                    JOINT LeftForeArm
                    {
                        OFFSET 0.291248 0.000000 0.000000
                        CHANNELS 3 Zrotation Xrotation Yrotation
                        JOINT LeftHand
                        {
                            OFFSET 0.245673 0.000000 0.000000
                            CHANNELS 3 Zrotation Xrotation Yrotation
                            End Site
                            {
                                OFFSET 0.152213 0.000000 0.000000
                            }
                        }
                    }
                }
            }
            JOINT RightShoulder
            {
                OFFSET -0.040052 0.235234 -0.000041
                CHANNELS 3 Zrotation Xrotation Yrotation
                JOINT RightArm
                {
                    OFFSET -0.117964 0.000000 0.000000
                    CHANNELS 3 Zrotation Xrotation Yrotation
                    JOINT RightForeArm
                    {
                        OFFSET -0.291248 0.000000 0.000000
                        CHANNELS 3 Zrotation Xrotation Yrotation
                        JOINT RightHand
                        {
                            OFFSET -0.245673 0.000000 0.000000
                            CHANNELS 3 Zrotation Xrotation Yrotation
                            End Site
                            {
                                OFFSET -0.152213 0.000000 0.000000
                            }
                        }
                    }
                }
            }
        }
    }
    JOINT LeftUpLeg
    {
        OFFSET 0.101475 0.000000 0.000000
        CHANNELS 3 Zrotation Xrotation Yrotation
        JOINT LeftLeg
        {
            OFFSET -0.000000 -0.446535 0.000000
            CHANNELS 3 Zrotation Xrotation Yrotation
            JOINT LeftFoot
            {
                OFFSET -0.000000 -0.400037 0.000000
                CHANNELS 3 Zrotation Xrotation Yrotation
                JOINT LeftToeBase
                {
                    OFFSET -0.000000 -0.065959 0.152213
                    CHANNELS 3 Zrotation Xrotation Yrotation
                    End Site
                    {
                        OFFSET -0.000000 0.000000 0.040590
                    }
                }
            }
        }
    }
    JOINT RightUpLeg
    {
        OFFSET -0.101475 0.000000 0.000000
        CHANNELS 3 Zrotation Xrotation Yrotation
        JOINT RightLeg
        {
            OFFSET -0.000000 -0.446535 0.000000
            CHANNELS 3 Zrotation Xrotation Yrotation
            JOINT RightFoot
            {
                OFFSET -0.000000 -0.400037 0.000000
                CHANNELS 3 Zrotation Xrotation Yrotation
                JOINT RightToeBase
                {
                    OFFSET -0.000000 -0.065959 0.152213
                    CHANNELS 3 Zrotation Xrotation Yrotation
                    End Site
                    {
                        OFFSET -0.000000 0.000000 0.040590
                    }
                }
            }
        }
    }
}
MOTION
Frames:    5
Frame Time:    0.008333
0.216533    0.844951    -0.075280    -2.065591    -0.570604    1.005334    -1.013245    5.104931    -2.092272    0.068175    -2.931067    -0.711577    8.320105    0.245398    -0.480100    -1.290848    1.002645    0.810857    43.786770    -13.464223    9.897671    -4.753733    -18.330845    -15.767966    54.937119    -37.485828    -41.172787    41.716118    -16.191488    3.695483    -33.494328    -10.728423    -9.261051    -5.449792    -16.154131    17.952059    -81.454239    -47.330399    29.518948    -15.918964    -22.932716    -26.961306    26.234505    -6.242502    -16.183451    6.132885    33.847839    -10.961287    -26.787340    -22.106382    -6.790512    0.004021    -7.559928    -0.202377    -19.906435    -8.695052    13.719259    -4.604470    40.765301    17.691889    26.107498    -25.598007    -8.027575    0.255105    -6.322932    3.158990    
0.217061    0.852962    -0.074174    -1.858230    -0.474012    1.165878    -1.359734    4.635072    -2.215052    0.308781    -2.589943    -0.750534    8.326692    0.324226    -0.477731    -1.253327    1.501438    0.820297    43.097637    -13.545324    9.381525    -5.378621    -17.846651    -15.406968    51.924049    -37.991768    -41.312260    42.255424    -17.373182    5.701075    -32.917213    -10.956894    -8.501030    -4.285066    -15.715682    17.573112    -81.277405    -46.705994    27.830761    -16.599077    -23.427849    -27.516729    26.071178    -6.045826    -16.597019    5.292666    32.632481    -10.199757    -25.787548    -19.865612    -6.001488    -0.000343    -9.055248    0.049808    -19.984221    -8.298693    14.927205    -3.690186    39.636375    16.411678    25.803186    -23.704826    -9.009570    0.272978    -7.690088    2.945212    
0.217757    0.862381    -0.073019    -1.674006    -0.254106    1.391416    -1.546806    4.050899    -2.313133    0.235607    -2.284373    -0.785338    8.608828    0.406852    -0.604737    -1.276547    1.991857    0.742676    42.575558    -13.558115    8.857701    -6.247180    -17.075499    -14.935034    48.982738    -38.354515    -41.309357    42.869308    -18.423634    7.535585    -31.822554    -10.847130    -7.777113    -3.373480    -15.230992    16.750530    -80.019684    -46.303558    26.480843    -17.081610    -24.390686    -27.847179    25.926077    -5.907029    -16.812263    4.489964    31.118120    -9.145410    -24.741434    -17.003237    -5.428509    0.002057    -10.755009    0.247825    -20.089989    -7.895021    15.924042    -2.831490    38.182026    15.147343    25.410130    -21.346247    -10.028665    0.277354    -8.987434    2.666466    
0.218784    0.873225    -0.071875    -1.607329    0.057784    1.540949    -1.523420    3.410464    -2.306401    0.101960    -2.063006    -0.782674    8.651815    0.608272    -0.812562    -0.967421    2.218660    0.505927    41.508663    -13.262277    8.182371    -6.741427    -16.370609    -14.257722    45.751095    -38.581028    -41.387939    43.544529    -19.419378    9.128114    -30.649479    -10.527484    -7.187191    -2.537915    -14.637793    15.741026    -77.820778    -46.074192    25.555801    -17.309673    -25.536175    -28.242174    25.836893    -5.773459    -16.622931    3.863573    29.428967    -8.192851    -23.367252    -13.741453    -4.880196    0.011321    -12.649870    0.449293    -20.060007    -7.511812    16.554819    -2.234086    36.382454    13.928482    24.793428    -18.470951    -11.130130    0.279747    -10.066660    2.465791    
0.219688    0.885056    -0.070184    -1.303519    0.192521    1.981427    -1.873578    2.919442    -2.483113    0.215987    -1.810303    -0.840800    8.668210    0.688745    -0.987350    -1.022751    2.800482    0.347033    40.178612    -12.954308    7.501782    -7.281982    -15.503167    -13.410637    42.320290    -38.546379    -41.703346    43.737137    -20.199308    10.389004    -29.117855    -9.737939    -6.589281    -2.225063    -14.317605    14.494010    -74.741364    -45.913223    25.001602    -16.664038    -26.915335    -28.378506    25.407377    -5.585798    -16.484802    3.411151    27.633919    -7.596130    -21.707651    -10.205787    -4.214561    0.034692    -14.653788    0.803381    -20.280203    -6.704447    16.705265    -1.780072    34.335514    12.806369    23.744169    -15.183674    -12.161267    0.240667    -11.149062    1.957891    
